<svg width="160" height="72" viewBox="0 0 160 72" fill="none" xmlns="http://www.w3.org/2000/svg">
<path d="M101.285 6.8897L98.0879 10.4595L99.0771 11.3454L102.274 7.77567L101.285 6.8897Z" fill="#367CFF"/>
<path d="M73.2179 47.1266L71.0762 51.4136L72.2641 52.0071L74.4058 47.7201L73.2179 47.1266Z" fill="#0CBC8B"/>
<path d="M90.599 35.8472L89.3271 36.2285L90.7033 40.8189L91.9752 40.4376L90.599 35.8472Z" fill="#367CFF"/>
<path d="M91.0277 38.4669L86.5015 35.0263C86.402 34.9508 86.2879 34.8967 86.1664 34.8677C86.0449 34.8386 85.9187 34.8352 85.7958 34.8576C85.6729 34.88 85.556 34.9277 85.4526 34.9977C85.3491 35.0678 85.2614 35.1586 85.195 35.2644C85.0784 35.4635 85.04 35.6988 85.0871 35.9247C85.1341 36.1506 85.2634 36.3509 85.4498 36.4869L86.4203 37.2246L82.3036 36.3057C81.8478 36.1954 81.2177 36.352 81.1279 36.8715C81.0802 37.0692 81.101 37.2772 81.1868 37.4616C81.2725 37.646 81.4182 37.7958 81.6001 37.8868C81.598 37.8908 81.5964 37.895 81.5952 37.8994C81.5949 37.9028 81.5949 37.9063 81.5952 37.9097L80.892 37.7399C80.7617 37.7085 80.6261 37.7065 80.495 37.7342C80.3639 37.7619 80.2406 37.8184 80.1342 37.8998C80.0277 37.9811 79.9408 38.0852 79.8796 38.2044C79.8185 38.3237 79.7847 38.455 79.7808 38.589C79.7788 38.8 79.8494 39.0052 79.9807 39.1704C80.1119 39.3357 80.2959 39.4508 80.5019 39.4966L80.8007 39.5688C80.8027 39.5784 80.8063 39.5877 80.8113 39.5961C80.5978 39.5942 80.3907 39.6683 80.2268 39.8051C80.063 39.942 79.9531 40.1327 79.9169 40.343C79.884 40.5744 79.9396 40.8096 80.0725 41.0018C80.2054 41.194 80.4059 41.329 80.634 41.3799L81.3774 41.5595C81.3651 41.5644 81.3542 41.5721 81.3456 41.582C81.3369 41.5919 81.3307 41.6038 81.3276 41.6166C81.3246 41.632 81.3261 41.648 81.332 41.6626C81.1414 41.7136 80.9729 41.8259 80.8523 41.9822C80.7317 42.1384 80.6658 42.3299 80.6647 42.5272C80.6678 42.7345 80.7407 42.9347 80.8717 43.0953C81.0027 43.256 81.1841 43.3677 81.3865 43.4125L87.6569 44.9274C88.5341 45.1392 89.4546 45.0842 90.3004 44.7696C91.1462 44.455 91.8788 43.895 92.4044 43.1613C92.8575 42.5287 93.046 41.7444 92.93 40.9749C92.8139 40.2055 92.4024 39.5116 91.7829 39.0408L91.0277 38.4669Z" fill="#E98862"/>
<g opacity="0.2">
<path d="M85.67 38.8167C85.6648 38.8377 85.6515 38.8559 85.6331 38.8672C85.6146 38.8786 85.5924 38.8823 85.5713 38.8776L81.6571 37.9978C81.6464 37.9954 81.6364 37.9909 81.6275 37.9846C81.6185 37.9783 81.611 37.9704 81.6051 37.9612C81.5993 37.9519 81.5954 37.9417 81.5935 37.9309C81.5916 37.9202 81.5919 37.9092 81.5943 37.8985C81.5967 37.8879 81.6012 37.8778 81.6075 37.8689C81.6138 37.86 81.6217 37.8524 81.631 37.8466C81.6402 37.8408 81.6505 37.8368 81.6612 37.835C81.6719 37.8331 81.6829 37.8334 81.6936 37.8358L85.6076 38.7156C85.6183 38.718 85.6284 38.7224 85.6373 38.7287C85.6463 38.735 85.6539 38.7431 85.6597 38.7523C85.6655 38.7616 85.6695 38.7719 85.6713 38.7827C85.6731 38.7935 85.6728 38.8045 85.6704 38.8152L85.67 38.8167Z" fill="#0C0C0C"/>
</g>
<g opacity="0.2">
<path d="M85.3305 40.5535C85.3253 40.5748 85.3119 40.5931 85.2932 40.6045C85.2746 40.6159 85.2522 40.6195 85.2309 40.6144L80.8627 39.6334C80.852 39.631 80.8419 39.6265 80.833 39.6202C80.8241 39.6139 80.8165 39.6059 80.8106 39.5967C80.8048 39.5874 80.8009 39.5771 80.799 39.5663C80.7972 39.5555 80.7975 39.5445 80.8 39.5338C80.8055 39.5126 80.8188 39.4944 80.8373 39.4827C80.8558 39.4711 80.8781 39.4669 80.8996 39.4711L85.2678 40.4521C85.2784 40.4545 85.2885 40.459 85.2975 40.4653C85.3064 40.4716 85.314 40.4796 85.3199 40.4889C85.3257 40.4981 85.3296 40.5084 85.3315 40.5192C85.3333 40.53 85.333 40.541 85.3305 40.5517V40.5535Z" fill="#0C0C0C"/>
</g>
<g opacity="0.2">
<path d="M84.9728 42.4369C84.9675 42.4579 84.9543 42.4761 84.9358 42.4875C84.9173 42.4989 84.8951 42.5026 84.874 42.4978L81.3896 41.7153C81.3681 41.7105 81.3494 41.6973 81.3376 41.6787C81.3258 41.6601 81.3219 41.6376 81.3267 41.6161C81.3315 41.5946 81.3447 41.5759 81.3633 41.5642C81.3819 41.5524 81.4044 41.5485 81.4259 41.5533L84.9103 42.3358C84.921 42.3382 84.9312 42.3426 84.9401 42.3489C84.9491 42.3552 84.9567 42.3632 84.9625 42.3725C84.9684 42.3818 84.9723 42.3921 84.9742 42.4029C84.976 42.4137 84.9757 42.4247 84.9733 42.4354L84.9728 42.4369Z" fill="#0C0C0C"/>
</g>
<path d="M69.5387 14.8017L72.0658 9.70872C72.1213 9.59681 72.1995 9.49769 72.2955 9.41767C72.3914 9.33766 72.5029 9.27849 72.623 9.24395C72.743 9.20941 72.869 9.20025 72.9928 9.21705C73.1165 9.23385 73.2355 9.27624 73.342 9.34153C73.535 9.46809 73.6741 9.66181 73.7324 9.88512C73.7906 10.1084 73.7639 10.3454 73.6574 10.5502L73.1154 11.6423L76.3953 8.99078C76.7549 8.68949 77.3888 8.54989 77.7001 8.97551C77.8305 9.13147 77.9043 9.32705 77.9093 9.53033C77.9144 9.73361 77.8504 9.9326 77.7278 10.0948C77.7315 10.0975 77.7349 10.1006 77.7379 10.104C77.7397 10.1069 77.7413 10.1099 77.7427 10.1131L78.2973 9.64829C78.4001 9.56232 78.5207 9.50035 78.6504 9.4669C78.7802 9.43346 78.9157 9.42938 79.0472 9.45497C79.1787 9.48056 79.3029 9.53517 79.4106 9.61482C79.5183 9.69447 79.6069 9.79715 79.6699 9.91538C79.7654 10.1036 79.7934 10.3188 79.7492 10.5252C79.705 10.7315 79.5913 10.9164 79.4271 11.049L79.191 11.2467C79.1937 11.2561 79.1945 11.266 79.1935 11.2757C79.3839 11.1792 79.6024 11.1535 79.81 11.2033C80.0176 11.2531 80.2007 11.3751 80.3266 11.5475C80.4588 11.7402 80.5134 11.9757 80.4795 12.207C80.4457 12.4382 80.3259 12.6482 80.144 12.7949L79.5579 13.2858C79.5711 13.2846 79.5843 13.2867 79.5966 13.2917C79.6088 13.2967 79.6197 13.3046 79.6283 13.3147C79.6378 13.3272 79.6436 13.3423 79.6449 13.358C79.8383 13.3191 80.0392 13.3448 80.2166 13.4312C80.3941 13.5176 80.5381 13.6599 80.6267 13.8362C80.7161 14.0233 80.7396 14.235 80.6936 14.4371C80.6476 14.6393 80.5348 14.8199 80.3733 14.9499L75.4282 19.0922C74.7365 19.6717 73.8874 20.0314 72.9898 20.1252C72.0923 20.219 71.1872 20.0426 70.3906 19.6186C69.7038 19.253 69.1865 18.6341 68.9487 17.8934C68.7109 17.1526 68.7713 16.3482 69.117 15.6513L69.5387 14.8017Z" fill="#E98862"/>
<g opacity="0.2">
<path d="M74.494 12.7354C74.508 12.7521 74.5281 12.7626 74.5499 12.7646C74.5716 12.7667 74.5933 12.76 74.6102 12.7462L77.7266 10.22C77.7437 10.2062 77.7546 10.1861 77.7569 10.1642C77.7592 10.1423 77.7527 10.1203 77.7388 10.1032C77.725 10.0861 77.7049 10.0752 77.683 10.073C77.6611 10.0707 77.6391 10.0772 77.622 10.091L74.5056 12.6172C74.4887 12.631 74.4779 12.651 74.4756 12.6728C74.4733 12.6945 74.4796 12.7163 74.4933 12.7334L74.494 12.7354Z" fill="#0C0C0C"/>
</g>
<g opacity="0.2">
<path d="M75.5699 14.1404C75.5839 14.1571 75.604 14.1676 75.6258 14.1696C75.6475 14.1716 75.6692 14.1649 75.6861 14.1511L79.164 11.3319C79.1809 11.3181 79.1917 11.2981 79.194 11.2763C79.1962 11.2546 79.1898 11.2328 79.1761 11.2157C79.1619 11.1994 79.142 11.189 79.1204 11.1868C79.0989 11.1845 79.0773 11.1904 79.0599 11.2034L75.5808 14.0221C75.5639 14.0359 75.5531 14.0559 75.5508 14.0776C75.5485 14.0994 75.5548 14.1212 75.5685 14.1383L75.5699 14.1404Z" fill="#0C0C0C"/>
</g>
<g opacity="0.2">
<path d="M76.7271 15.6689C76.7411 15.6857 76.7612 15.6962 76.783 15.6982C76.8047 15.7002 76.8264 15.6936 76.8433 15.6797L79.6176 13.431C79.6347 13.4171 79.6456 13.397 79.6479 13.3751C79.6502 13.3532 79.6437 13.3313 79.6298 13.3142C79.6159 13.2971 79.5958 13.2862 79.5739 13.2839C79.552 13.2816 79.5301 13.2881 79.513 13.302L76.738 15.5507C76.7211 15.5646 76.7103 15.5846 76.708 15.6063C76.7057 15.6281 76.7121 15.6499 76.7258 15.6669L76.7271 15.6689Z" fill="#0C0C0C"/>
</g>
<path d="M12.824 10.4349C12.824 10.4349 12.4676 15.7825 11.2647 17.7222C7.80098 23.3077 6.79753 29.591 10.266 32.8739C13.7345 36.1568 35.8578 36.2023 37.5338 28.6518C38.9448 22.2949 35.9169 21.6113 35.18 16.368C34.8467 13.9952 33.9295 9.01978 33.9295 9.01978" fill="#0A0A0A"/>
<path d="M31.8083 27.5446C31.7701 27.5396 31.3464 34.5714 23.1775 33.9584C17.5223 33.5346 15.5059 27.5343 15.3765 27.5343C15.9862 27.4047 17.0129 27.2163 17.2836 27.0717C18.1742 26.5933 19.2756 26.0953 19.5631 24.3659C19.7291 23.3699 19.4477 18.2702 19.5342 17.2612L28.2148 19.1994C28.0935 21.3293 27.2446 26.2667 30.2201 27.1406C30.7151 27.2855 31.2484 27.4184 31.8083 27.5446Z" fill="#E98862"/>
<path opacity="0.5" d="M28.3368 25.1231C28.2009 24.6849 28.1133 24.2331 28.0757 23.7758C27.9803 22.7324 27.9994 21.6816 28.1325 20.6423C26.3683 20.4041 24.7062 19.6759 23.3352 18.5403C23.174 19.1355 22.2874 21.7367 22.5329 22.3024C22.9966 23.372 25.1766 25.1231 28.3368 25.1231Z" fill="#0C0C0C"/>
<path d="M27.214 22.9325C23.7915 23.2645 19.3634 21.8947 18.4461 17.3369L17.6184 13.2245C16.7011 8.6669 18.3513 4.49041 22.6425 3.62673C26.9338 2.76354 30.8849 5.81208 31.8022 10.3699L32.1687 12.1905C32.5206 13.9393 33.3202 22.3416 27.214 22.9325Z" fill="#E98862"/>
<path opacity="0.1" d="M25.0381 16.96C25.6013 16.8928 26.018 16.5034 25.9687 16.0903C25.9194 15.6772 25.4228 15.3968 24.8596 15.464C24.2964 15.5312 23.8798 15.9206 23.9291 16.3337C23.9784 16.7468 24.4749 17.0272 25.0381 16.96Z" fill="#0C0C0C"/>
<path opacity="0.1" d="M30.9902 15.3084C31.04 15.7209 31.5372 16.0009 32.1004 15.9345C32.1977 15.9229 32.2936 15.9011 32.3864 15.8696C32.4126 15.3778 32.4141 14.9047 32.3999 14.4666C32.2434 14.4275 32.0811 14.418 31.9211 14.4386C31.3579 14.505 30.9414 14.8942 30.9902 15.3084Z" fill="#0C0C0C"/>
<path opacity="0.5" d="M28.5014 16.5836C28.5042 16.5833 28.507 16.5829 28.5097 16.5823C28.6836 16.546 28.8554 16.5002 29.0243 16.445C29.2763 16.3607 29.6053 16.2222 29.5601 15.9943C29.508 15.7347 28.2322 13.0759 28.0874 12.774C28.0815 12.7603 28.0729 12.748 28.0621 12.7378C28.0513 12.7276 28.0385 12.7197 28.0246 12.7145C28.0107 12.7093 27.9959 12.707 27.981 12.7076C27.9662 12.7083 27.9516 12.712 27.9382 12.7184C27.9248 12.7248 27.9128 12.7339 27.903 12.7451C27.8932 12.7562 27.8857 12.7693 27.8811 12.7834C27.8764 12.7975 27.8746 12.8124 27.8759 12.8272C27.8771 12.842 27.8813 12.8564 27.8882 12.8696C28.4322 14.0018 29.3083 15.8635 29.3435 16.0383C29.316 16.1198 28.898 16.279 28.4666 16.366C28.4522 16.3683 28.4385 16.3734 28.4262 16.381C28.4139 16.3886 28.4031 16.3986 28.3946 16.4103C28.3862 16.4221 28.3801 16.4354 28.3767 16.4495C28.3734 16.4636 28.3729 16.4782 28.3752 16.4926C28.3775 16.5069 28.3826 16.5206 28.3902 16.5329C28.3978 16.5453 28.4078 16.556 28.4195 16.5645C28.4313 16.5729 28.4446 16.579 28.4587 16.5824C28.4728 16.5857 28.4874 16.5862 28.5017 16.5839L28.5014 16.5836Z" fill="#0C0C0C"/>
<path d="M14.1943 14.701L18.0415 13.9495C20.9476 12.7343 21.7721 7.66952 21.7721 7.66952C21.7721 7.66952 25.3586 11.0852 33.9303 9.01974C33.9303 9.01974 32.0684 -2.94634 19.4114 0.686679C15.3304 1.85779 12.4396 6.01768 12.8695 11.5275C13.1708 15.3876 14.1943 14.701 14.1943 14.701Z" fill="#0A0A0A"/>
<path d="M18.9917 18.6717C17.6876 18.9341 16.3497 17.7517 16.0868 16.4473C15.8238 15.1429 16.7368 14.2113 18.0409 13.9487L18.8888 14.6874L20.1127 18.4458L18.9917 18.6717Z" fill="#E98862"/>
<path d="M29.0115 10.6536C29.3378 10.4229 29.7193 10.2826 30.1174 10.2472C30.3174 10.228 30.5191 10.2392 30.7158 10.2804C30.9141 10.3208 31.1066 10.386 31.2887 10.4743L31.2943 10.477C31.3145 10.4859 31.3373 10.4865 31.358 10.4788C31.3787 10.4711 31.3955 10.4556 31.4049 10.4356C31.4143 10.4156 31.4155 10.3928 31.4082 10.372C31.401 10.3511 31.3859 10.3339 31.3662 10.3241C31.1732 10.2222 30.9682 10.145 30.756 10.0943C30.5423 10.0424 30.322 10.0228 30.1024 10.0364C29.6578 10.061 29.2279 10.2043 28.8575 10.4514C28.8437 10.4607 28.8318 10.4727 28.8227 10.4867C28.8135 10.5006 28.8071 10.5162 28.804 10.5326C28.8009 10.549 28.801 10.5658 28.8044 10.5821C28.8078 10.5985 28.8144 10.614 28.8238 10.6278C28.8331 10.6416 28.8452 10.6534 28.8591 10.6625C28.8731 10.6716 28.8887 10.6779 28.9051 10.681C28.9215 10.6841 28.9383 10.6839 28.9546 10.6805C28.971 10.6771 28.9865 10.6705 29.0002 10.661L29.0032 10.6591L29.0115 10.6536Z" fill="#0C0C0C"/>
<path d="M25.4978 11.1392C25.0609 11.0522 24.6087 11.0842 24.1884 11.2316C23.9806 11.3032 23.7848 11.4055 23.6074 11.5352C23.4307 11.6633 23.2709 11.8131 23.1317 11.9811C23.1176 11.9978 23.1106 12.0193 23.112 12.0411C23.1134 12.0629 23.1233 12.0833 23.1394 12.098C23.1556 12.1127 23.1768 12.1205 23.1986 12.12C23.2204 12.1194 23.2412 12.1104 23.2565 12.0948L23.261 12.0901C23.3953 11.9388 23.5481 11.805 23.7158 11.6918C23.8818 11.5786 24.0639 11.4911 24.256 11.4323C24.6372 11.3125 25.0434 11.2959 25.4332 11.3842L25.4428 11.3867C25.4755 11.3946 25.5101 11.3892 25.5388 11.3717C25.5675 11.3541 25.5881 11.3259 25.5961 11.2932C25.604 11.2605 25.5986 11.226 25.5811 11.1972C25.5635 11.1685 25.5353 11.1479 25.5026 11.14L25.4978 11.1392Z" fill="#0C0C0C"/>
<path d="M18.0442 13.886C20.6303 12.9233 21.4885 11.1375 21.7527 9.80849C21.9238 8.92217 21.9078 8.0099 21.7057 7.13013L21.6257 7.1522C21.8247 8.0205 21.8401 8.92079 21.6709 9.79538C21.4099 11.1026 20.564 12.8599 18.0151 13.8085L18.0442 13.886Z" fill="#0C0C0C"/>
<path d="M38.4611 28.3811L63.0165 36.5892L55.8071 39.7938L68.0512 14.675L78.058 19.3386L66.6977 44.869C66.1231 46.16 65.1032 47.2012 63.8243 47.8023C62.5455 48.4035 61.093 48.5244 59.7323 48.1429L59.4881 48.0737L34.561 41.0753L38.4611 28.3811Z" fill="#367CFF"/>
<path d="M23.0251 32.2004C17.3659 31.9337 17.1277 27.1304 17.1277 27.1304C17.1277 27.1304 14.3237 27.3116 12.4597 27.5638C9.408 27.9766 7.39479 29.0115 5.79259 30.6135C4.30227 32.104 3.39493 33.7165 4.35506 44.0113C5.05026 51.4656 4.56106 67.8616 4.56106 67.8616H39.0469C39.0469 67.8616 41.455 44.1738 41.7405 40.8188C42.2853 34.4132 43.8246 32.999 40.7059 29.6993C38.4442 27.3063 32.6052 27.1304 30.2551 27.1307C30.2167 27.1307 30.732 32.5638 23.0251 32.2004Z" fill="#367CFF"/>
<path d="M29.6489 17.4816C28.5369 18.047 27.2682 18.2258 26.0432 17.9897C26.0008 17.9818 25.957 17.9861 25.917 18.0021C25.8769 18.0181 25.8422 18.0452 25.817 18.0802C25.7917 18.1151 25.7769 18.1566 25.7743 18.1997C25.7718 18.2427 25.7815 18.2856 25.8024 18.3234C26.1676 18.9668 27.0337 20.0664 28.5197 19.6182C29.4792 19.3287 29.8419 18.3417 29.9764 17.731C29.9856 17.6887 29.9825 17.6447 29.9676 17.6042C29.9526 17.5636 29.9264 17.5282 29.892 17.502C29.8576 17.4758 29.8165 17.46 29.7734 17.4564C29.7303 17.4528 29.6871 17.4615 29.6489 17.4816Z" fill="white"/>
<path d="M29.718 12.5366C30.0148 12.5366 30.2553 12.296 30.2553 11.9992C30.2553 11.7025 30.0148 11.4619 29.718 11.4619C29.4212 11.4619 29.1807 11.7025 29.1807 11.9992C29.1807 12.296 29.4212 12.5366 29.718 12.5366Z" fill="#0C0C0C"/>
<path d="M24.5544 13.4404C24.8512 13.4404 25.0918 13.1998 25.0918 12.9031C25.0918 12.6063 24.8512 12.3657 24.5544 12.3657C24.2577 12.3657 24.0171 12.6063 24.0171 12.9031C24.0171 13.1998 24.2577 13.4404 24.5544 13.4404Z" fill="#0C0C0C"/>
<path d="M41.6637 43.1531C41.6602 43.1534 41.6567 43.1534 41.6532 43.1531C41.6314 43.1504 41.6116 43.1391 41.5981 43.1218C41.5846 43.1045 41.5785 43.0825 41.5812 43.0607L42.1152 38.7318C42.1163 38.7209 42.1197 38.7104 42.125 38.7008C42.1303 38.6912 42.1375 38.6828 42.1461 38.6761C42.1547 38.6694 42.1646 38.6645 42.1752 38.6617C42.1858 38.6589 42.1968 38.6582 42.2077 38.6598C42.2185 38.6611 42.2289 38.6646 42.2384 38.6699C42.2479 38.6753 42.2563 38.6825 42.263 38.6911C42.2697 38.6997 42.2746 38.7096 42.2775 38.7201C42.2804 38.7306 42.2812 38.7416 42.2799 38.7524L41.7459 43.0811C41.7432 43.101 41.7334 43.1193 41.7183 43.1326C41.7032 43.1458 41.6838 43.1531 41.6637 43.1531Z" fill="#0C0C0C"/>
<path d="M128.955 9.75053C128.955 9.75053 126.898 7.44035 127.137 3.11396C127.322 -0.235866 129.906 2.47321 129.906 2.47321C129.906 2.47321 130.062 0.0624307 131.726 0.636449C133.39 1.21047 133.857 3.86875 133.857 3.86875" fill="#0C0C0C"/>
<path d="M140.517 2.67407C140.517 2.67407 148.825 5.27674 143.463 16.1697L142.702 16.0701L141.156 15.8684" fill="#0C0C0C"/>
<path d="M128.697 27.5272C128.735 27.5222 129.157 34.5306 137.299 33.9197C142.935 33.4974 144.945 27.5174 145.074 27.5174C144.467 27.388 143.443 27.2003 143.173 27.0562C142.286 26.5793 141.188 26.0831 140.902 24.3596C140.737 23.3661 141.016 18.2841 140.93 17.2788L132.278 19.2099C132.399 21.3326 133.245 26.2538 130.28 27.1248C129.786 27.2689 129.254 27.4013 128.697 27.5272Z" fill="#E98862"/>
<path opacity="0.52" d="M132.157 25.1138C132.293 24.677 132.38 24.2267 132.417 23.7709C132.513 22.7308 132.494 21.6835 132.361 20.6476C134.119 20.4103 135.776 19.6845 137.143 18.5527C137.303 19.146 138.187 21.7386 137.942 22.3024C137.48 23.3683 135.307 25.1138 132.157 25.1138Z" fill="#0C0C0C"/>
<path d="M133.194 22.7405C136.602 23.1075 141.03 21.791 141.993 17.2586L142.863 13.1689C143.826 8.63716 142.227 4.45619 137.959 3.54901C133.692 2.64184 129.721 5.63809 128.758 10.1705L128.373 11.981C128.251 12.6049 128.173 13.2364 128.137 13.8711C128.031 15.5476 127.876 18.0982 128.65 19.9985C129.38 21.7926 131.018 22.5059 133.194 22.7405Z" fill="#E98862"/>
<path d="M130.488 12.2988C130.785 12.2988 131.025 12.0582 131.025 11.7615C131.025 11.4647 130.785 11.2241 130.488 11.2241C130.191 11.2241 129.951 11.4647 129.951 11.7615C129.951 12.0582 130.191 12.2988 130.488 12.2988Z" fill="#0C0C0C"/>
<path d="M135.592 12.8359C135.888 12.8359 136.129 12.5953 136.129 12.2986C136.129 12.0018 135.888 11.7612 135.592 11.7612C135.295 11.7612 135.054 12.0018 135.054 12.2986C135.054 12.5953 135.295 12.8359 135.592 12.8359Z" fill="#0C0C0C"/>
<path d="M141.435 18.5829C142.732 18.8586 144.078 17.6946 144.354 16.3977C144.629 15.1007 143.73 14.1622 142.433 13.8865L141.58 14.6134L140.32 18.3458L141.435 18.5829Z" fill="#E98862"/>
<path d="M140.558 16.2357C140.558 16.2357 141.401 9.71853 139.53 8.93287C138.285 8.40964 134.769 9.62374 131.963 8.48616C130.735 7.98817 129.461 8.06287 129.218 8.64104C129.121 8.86995 129.01 5.28208 131.527 3.07764C133.531 1.32239 138.854 1.77506 141.087 2.92675C147.27 6.11539 142.645 14.223 142.645 14.223L141.911 16.381L140.558 16.2357Z" fill="#0C0C0C"/>
<g opacity="0.52">
<path d="M131.886 16.7023L131.877 16.701C131.459 16.6132 130.768 16.4188 130.833 16.1066C130.888 15.8474 132.184 13.1985 132.332 12.8973C132.345 12.8714 132.367 12.8516 132.394 12.8423C132.422 12.8329 132.452 12.8348 132.477 12.8475C132.503 12.8602 132.523 12.8827 132.533 12.91C132.542 12.9373 132.54 12.9672 132.527 12.9931C131.952 14.166 131.083 15.9751 131.046 16.1512C131.072 16.2342 131.489 16.3971 131.922 16.4879C131.949 16.4939 131.973 16.5102 131.988 16.5333C132.004 16.5565 132.01 16.5847 132.005 16.6122C132.001 16.6396 131.986 16.6643 131.964 16.6811C131.941 16.6978 131.914 16.7055 131.886 16.7023Z" fill="#0C0C0C"/>
</g>
<path d="M131.79 10.0806C131.379 9.87331 130.92 9.78058 130.461 9.8122C130.235 9.82641 130.013 9.87436 129.801 9.95447C129.592 10.0327 129.394 10.1371 129.211 10.2652C129.18 10.2847 129.159 10.3154 129.15 10.3508C129.142 10.3861 129.148 10.4232 129.167 10.4541C129.186 10.485 129.217 10.5072 129.252 10.5158C129.287 10.5245 129.325 10.519 129.356 10.5004L129.365 10.495C129.533 10.3909 129.713 10.3084 129.902 10.2493C130.087 10.1899 130.281 10.1591 130.476 10.1578C130.861 10.1522 131.241 10.2484 131.577 10.4369L131.59 10.4443C131.613 10.4583 131.639 10.4676 131.666 10.4715C131.693 10.4754 131.721 10.4739 131.748 10.467C131.774 10.4602 131.799 10.4482 131.821 10.4318C131.843 10.4153 131.861 10.3946 131.875 10.371C131.889 10.3474 131.898 10.3212 131.902 10.2941C131.905 10.267 131.904 10.2394 131.897 10.2129C131.89 10.1864 131.878 10.1616 131.861 10.1398C131.844 10.1181 131.824 10.0998 131.8 10.0861L131.79 10.0806Z" fill="#0C0C0C"/>
<path d="M134.862 10.9109C135.235 10.8152 135.627 10.8197 135.998 10.924C136.186 10.9755 136.365 11.055 136.529 11.1599C136.696 11.2655 136.849 11.3916 136.984 11.5352L136.992 11.5427C137.017 11.5675 137.052 11.5815 137.087 11.5817C137.123 11.5819 137.157 11.5684 137.183 11.5439C137.209 11.5194 137.224 11.4858 137.226 11.4502C137.228 11.4146 137.216 11.3797 137.193 11.3528C137.049 11.1821 136.884 11.0302 136.702 10.9008C136.518 10.7691 136.316 10.6657 136.101 10.594C135.666 10.4453 135.198 10.4166 134.748 10.511C134.721 10.5168 134.696 10.5278 134.674 10.5434C134.651 10.559 134.632 10.5788 134.617 10.6017C134.588 10.6481 134.578 10.7044 134.589 10.7582C134.601 10.812 134.634 10.859 134.68 10.8887C134.726 10.9185 134.783 10.9286 134.836 10.9169L134.847 10.9142L134.862 10.9109Z" fill="#0C0C0C"/>
<path d="M131.228 17.7078C132.438 18.0102 133.715 17.9006 134.856 17.3964C134.896 17.3791 134.939 17.3735 134.982 17.3801C135.025 17.3868 135.064 17.4054 135.097 17.4338C135.129 17.4623 135.153 17.4994 135.165 17.5408C135.177 17.5821 135.177 17.6261 135.165 17.6676C134.953 18.3766 134.355 19.643 132.807 19.5381C131.807 19.4707 131.233 18.5897 130.964 18.0247C130.946 17.9855 130.939 17.9418 130.944 17.8988C130.95 17.8558 130.967 17.8152 130.995 17.7819C131.023 17.7486 131.059 17.7239 131.101 17.7108C131.142 17.6976 131.186 17.6966 131.228 17.7078Z" fill="white"/>
<path d="M136.031 4.00633C136.609 2.64882 136.33 1.22983 135.408 0.836934C134.485 0.444036 133.269 1.22601 132.691 2.58352C132.112 3.94103 132.391 5.36001 133.314 5.75291C134.236 6.14581 135.452 5.36384 136.031 4.00633Z" fill="#0C0C0C"/>
<path d="M137.426 32.2004C143.085 31.9337 143.323 27.1304 143.323 27.1304C143.323 27.1304 146.127 27.3116 147.991 27.5638C151.043 27.9766 153.056 29.0115 154.658 30.6135C156.148 32.104 157.055 33.7165 156.095 44.0113C155.4 51.4656 155.89 67.8616 155.89 67.8616H121.404C121.404 67.8616 118.996 44.1745 118.71 40.8188C118.165 34.4132 116.626 32.999 119.745 29.6993C122.006 27.3063 127.845 27.1304 130.196 27.1307C130.234 27.1307 129.719 32.5638 137.426 32.2004Z" fill="#367CFF"/>
<path d="M118.629 31.1831L109.713 50.0856L92.1293 36.8629L85.1455 46.1498L108.428 63.6585C108.637 63.8133 108.854 63.9552 109.08 64.0834C109.745 64.4562 110.478 64.6942 111.235 64.784C111.992 64.8737 112.76 64.8135 113.494 64.6066C114.227 64.3998 114.914 64.0504 115.512 63.5784C116.111 63.1064 116.611 62.521 116.984 61.8558L117.085 61.676L130.688 37.3957L118.629 31.1831Z" fill="#367CFF"/>
<path d="M157.213 68.0276H0.165997C0.121972 68.0276 0.07975 68.0101 0.0486195 67.9789C0.0174891 67.9478 0 67.9056 0 67.8616C0 67.8175 0.0174891 67.7753 0.0486195 67.7442C0.07975 67.713 0.121972 67.6956 0.165997 67.6956H157.213C157.257 67.6956 157.299 67.713 157.33 67.7442C157.361 67.7753 157.379 67.8175 157.379 67.8616C157.379 67.9056 157.361 67.9478 157.33 67.9789C157.299 68.0101 157.257 68.0276 157.213 68.0276Z" fill="#292A2E"/>
<path d="M123.054 43.1711H38.9565V71.9171H123.054V43.1711Z" fill="white"/>
<path d="M123.137 72.0002H38.874V43.0881H123.137V72.0002ZM39.04 71.8342H122.971V43.2541H39.04V71.8342Z" fill="#0C0C0C"/>
<path d="M34.8044 51.9562L39.9956 49.6377C40.1097 49.5868 40.2331 49.5602 40.3581 49.5596C40.483 49.559 40.6067 49.5844 40.7212 49.6342C40.8358 49.684 40.9387 49.7571 41.0235 49.8489C41.1083 49.9407 41.173 50.0491 41.2135 50.1673C41.2817 50.3877 41.2655 50.6256 41.1682 50.8348C41.0709 51.044 40.8993 51.2096 40.6868 51.2995L39.5737 51.7975L43.7918 51.841C44.2609 51.8375 44.8386 52.1335 44.8077 52.6599C44.8091 52.8632 44.7415 53.061 44.6159 53.221C44.4904 53.381 44.3143 53.4938 44.1165 53.5408C44.1177 53.5452 44.1183 53.5497 44.1185 53.5543C44.118 53.5577 44.1173 53.5611 44.1163 53.5644L44.8397 53.5592C44.9736 53.5584 45.106 53.5874 45.2273 53.6442C45.3485 53.7009 45.4556 53.784 45.5407 53.8873C45.6258 53.9907 45.6868 54.1117 45.7192 54.2416C45.7516 54.3715 45.7547 54.507 45.7282 54.6382C45.682 54.8442 45.5666 55.028 45.4011 55.159C45.2356 55.29 45.0302 55.3602 44.8192 55.3578L44.5114 55.36C44.5073 55.3689 44.5017 55.3771 44.4948 55.3841C44.7031 55.4308 44.8879 55.5502 45.0163 55.7207C45.1446 55.8912 45.2081 56.1019 45.1955 56.315C45.1749 56.5478 45.0672 56.7643 44.894 56.9212C44.7208 57.0781 44.4948 57.164 44.2611 57.1616L43.4965 57.167C43.5072 57.1745 43.5161 57.1844 43.5223 57.196C43.5285 57.2075 43.532 57.2203 43.5323 57.2334C43.5317 57.2491 43.5265 57.2643 43.5174 57.2771C43.6914 57.3703 43.8299 57.518 43.9117 57.6976C43.9935 57.8772 44.014 58.0787 43.9701 58.2711C43.9198 58.4721 43.8032 58.6503 43.6391 58.7769C43.475 58.9034 43.273 58.9708 43.0657 58.9683L36.6151 59.0142C35.7128 59.0207 34.829 58.7575 34.0772 58.2585C33.3254 57.7594 32.7397 57.0472 32.3953 56.2132C32.0983 55.494 32.0934 54.6874 32.3817 53.9646C32.6699 53.2419 33.2286 52.66 33.9391 52.3426L34.8044 51.9562Z" fill="#E98862"/>
<g opacity="0.2">
<path d="M39.9414 53.5179C39.9417 53.5397 39.9506 53.5605 39.9661 53.5759C39.9817 53.5912 40.0026 53.5998 40.0244 53.5998L44.0359 53.6358C44.0579 53.636 44.0791 53.6274 44.0948 53.612C44.1105 53.5966 44.1194 53.5755 44.1196 53.5535C44.1198 53.5315 44.1113 53.5103 44.0958 53.4946C44.0804 53.4789 44.0594 53.47 44.0374 53.4698L40.0259 53.4336C40.0039 53.4336 39.9828 53.4423 39.9672 53.4579C39.9516 53.4735 39.9429 53.4946 39.9429 53.5166L39.9414 53.5179Z" fill="#0C0C0C"/>
</g>
<g opacity="0.2">
<path d="M39.8758 55.2873C39.8761 55.3091 39.885 55.3299 39.9005 55.3452C39.9161 55.3605 39.937 55.3691 39.9588 55.3691L44.4356 55.4095C44.4576 55.4095 44.4787 55.4007 44.4943 55.3852C44.5099 55.3696 44.5186 55.3485 44.5186 55.3265C44.5179 55.3047 44.5089 55.284 44.4935 55.2686C44.4781 55.2532 44.4574 55.2442 44.4356 55.2435L39.9588 55.2031C39.9479 55.203 39.937 55.2051 39.9268 55.2092C39.9166 55.2133 39.9074 55.2194 39.8996 55.2271C39.8918 55.2349 39.8856 55.244 39.8814 55.2542C39.8772 55.2643 39.875 55.2752 39.875 55.2861L39.8758 55.2873Z" fill="#0C0C0C"/>
</g>
<g opacity="0.2">
<path d="M39.7954 57.2018C39.7957 57.2236 39.8046 57.2445 39.8201 57.2598C39.8357 57.2751 39.8566 57.2837 39.8784 57.2837L43.4495 57.3159C43.4715 57.3161 43.4927 57.3075 43.5084 57.2921C43.5241 57.2767 43.533 57.2556 43.5332 57.2336C43.5334 57.2116 43.5249 57.1904 43.5095 57.1747C43.494 57.159 43.473 57.1501 43.451 57.1499L39.8799 57.1177C39.8579 57.1177 39.8368 57.1264 39.8212 57.142C39.8056 57.1575 39.7969 57.1787 39.7969 57.2007L39.7954 57.2018Z" fill="#0C0C0C"/>
</g>
<path d="M36.2905 61.1998L7.50876 67.7426C6.55262 67.8467 5.58537 67.7278 4.68291 67.3952C3.78044 67.0627 2.96731 66.5255 2.30731 65.8259C1.64731 65.1263 1.1584 64.2833 0.87893 63.363C0.599465 62.4427 0.53705 61.4702 0.696582 60.5217L3.99029 34.0286C4.26422 32.4005 5.17367 30.9479 6.51858 29.9904C7.8635 29.0329 9.5337 28.6488 11.1618 28.9227C12.7898 29.1967 14.2424 30.1061 15.1999 31.451C16.1575 32.7959 16.5415 34.4662 16.2676 36.0942L14.6815 55.0569L34.6781 50.5315L36.2905 61.1998Z" fill="#367CFF"/>
<path d="M10.6346 55.802C10.6137 55.8018 10.5937 55.7938 10.5785 55.7796C10.5633 55.7653 10.554 55.7459 10.5525 55.7251C10.5509 55.7043 10.5573 55.6837 10.5703 55.6674C10.5832 55.6511 10.6018 55.6402 10.6224 55.637L14.6331 54.7806C14.6439 54.7788 14.6549 54.7793 14.6655 54.7818C14.6762 54.7844 14.6862 54.7891 14.6949 54.7956C14.7037 54.8021 14.7111 54.8103 14.7167 54.8197C14.7223 54.8291 14.7259 54.8395 14.7274 54.8503C14.7306 54.8721 14.7251 54.8942 14.712 54.9119C14.6989 54.9296 14.6794 54.9413 14.6577 54.9446L10.647 55.801C10.6429 55.8017 10.6387 55.802 10.6346 55.802Z" fill="#0C0C0C"/>
<path d="M8.37177 67.8618C8.34976 67.8633 8.32808 67.8559 8.3115 67.8413C8.29493 67.8268 8.28481 67.8062 8.28338 67.7842C8.28195 67.7622 8.28932 67.7405 8.30387 67.724C8.31843 67.7074 8.33897 67.6973 8.36098 67.6958L36.1093 61.1604L34.537 50.6527L14.6597 54.9438C14.6469 54.9454 14.6338 54.944 14.6216 54.9397C14.6094 54.9354 14.5983 54.9284 14.5892 54.9192C14.5801 54.9098 14.5734 54.8985 14.5695 54.8861C14.5657 54.8736 14.5648 54.8605 14.5669 54.8476L15.6819 44.013C15.6836 44.0022 15.6874 43.9918 15.6932 43.9825C15.6989 43.9732 15.7065 43.9651 15.7154 43.9588C15.7243 43.9524 15.7344 43.9479 15.7451 43.9456C15.7557 43.9432 15.7668 43.943 15.7776 43.9449C15.7993 43.9486 15.8186 43.9607 15.8314 43.9787C15.8441 43.9966 15.8493 44.0188 15.8456 44.0406L14.75 54.764L34.5757 50.4696C34.5864 50.4667 34.5975 50.4659 34.6085 50.4673C34.6195 50.4687 34.63 50.4724 34.6396 50.4779C34.6491 50.4836 34.6575 50.491 34.6641 50.4999C34.6708 50.5087 34.6756 50.5188 34.6783 50.5296L36.2906 61.1987C36.2957 61.2197 36.2924 61.2418 36.2815 61.2604C36.2706 61.279 36.2528 61.2926 36.232 61.2983L8.38256 67.8612C8.37898 67.8616 8.37538 67.8619 8.37177 67.8618Z" fill="#0C0C0C"/>
<path d="M125.647 56.9362L120.455 54.6177C120.341 54.5668 120.218 54.5402 120.093 54.5396C119.968 54.539 119.844 54.5644 119.73 54.6142C119.615 54.664 119.512 54.7371 119.428 54.8289C119.343 54.9207 119.278 55.0291 119.238 55.1472C119.17 55.3677 119.186 55.6056 119.283 55.8148C119.38 56.024 119.552 56.1896 119.764 56.2795L120.878 56.7775L116.659 56.821C116.19 56.8175 115.613 57.1135 115.644 57.6398C115.642 57.8432 115.71 58.041 115.835 58.201C115.961 58.361 116.137 58.4738 116.335 58.5208C116.334 58.5252 116.333 58.5297 116.333 58.5342C116.333 58.5377 116.334 58.541 116.335 58.5444L115.612 58.5392C115.478 58.5383 115.345 58.5673 115.224 58.6241C115.103 58.6808 114.996 58.7639 114.91 58.8673C114.825 58.9706 114.764 59.0916 114.732 59.2216C114.699 59.3515 114.696 59.487 114.723 59.6182C114.769 59.8241 114.885 60.0079 115.05 60.1389C115.216 60.2699 115.421 60.3401 115.632 60.3378L115.94 60.34C115.944 60.3489 115.95 60.357 115.956 60.364C115.748 60.4108 115.563 60.5301 115.435 60.7007C115.307 60.8712 115.243 61.0819 115.256 61.2949C115.276 61.5278 115.384 61.7443 115.557 61.9012C115.731 62.0581 115.957 62.1439 116.19 62.1415L116.955 62.147C116.944 62.1544 116.935 62.1644 116.929 62.1759C116.923 62.1874 116.919 62.2003 116.919 62.2134C116.92 62.2291 116.925 62.2443 116.934 62.2571C116.76 62.3503 116.621 62.498 116.54 62.6776C116.458 62.8572 116.437 63.0587 116.481 63.251C116.531 63.4521 116.648 63.6304 116.812 63.7569C116.976 63.8834 117.178 63.9508 117.386 63.9482L123.836 63.9942C124.739 64.0006 125.623 63.7374 126.374 63.2383C127.126 62.7391 127.712 62.0268 128.056 61.1927C128.353 60.4735 128.358 59.6668 128.07 58.9441C127.782 58.2214 127.223 57.6395 126.512 57.3221L125.647 56.9362Z" fill="#E98862"/>
<g opacity="0.2">
<path d="M120.509 58.4979C120.509 58.5197 120.5 58.5405 120.485 58.5558C120.469 58.5712 120.448 58.5797 120.426 58.5797L116.415 58.6158C116.404 58.6159 116.393 58.6138 116.383 58.6097C116.373 58.6056 116.364 58.5996 116.356 58.592C116.348 58.5843 116.342 58.5752 116.338 58.5652C116.333 58.5552 116.331 58.5444 116.331 58.5335C116.331 58.5226 116.333 58.5118 116.337 58.5017C116.341 58.4916 116.347 58.4824 116.355 58.4746C116.362 58.4668 116.372 58.4606 116.382 58.4564C116.392 58.4521 116.402 58.4499 116.413 58.4498L120.425 58.4136C120.447 58.4136 120.468 58.4223 120.483 58.4379C120.499 58.4534 120.508 58.4746 120.508 58.4966L120.509 58.4979Z" fill="#0C0C0C"/>
</g>
<g opacity="0.2">
<path d="M120.575 60.2673C120.574 60.2889 120.566 60.3096 120.55 60.3249C120.535 60.3402 120.514 60.3489 120.493 60.3491L116.016 60.3894C115.994 60.3894 115.972 60.3807 115.957 60.3651C115.941 60.3496 115.933 60.3285 115.933 60.3064C115.933 60.2847 115.942 60.264 115.958 60.2485C115.973 60.2331 115.994 60.2242 116.016 60.2234L120.492 60.1831C120.514 60.1831 120.536 60.1919 120.551 60.2074C120.567 60.223 120.575 60.2441 120.575 60.2661L120.575 60.2673Z" fill="#0C0C0C"/>
</g>
<g opacity="0.2">
<path d="M120.656 62.1818C120.656 62.2036 120.647 62.2244 120.631 62.2398C120.616 62.2551 120.595 62.2637 120.573 62.2637L117.002 62.2959C116.991 62.296 116.98 62.2939 116.97 62.2898C116.96 62.2857 116.951 62.2797 116.943 62.2721C116.935 62.2644 116.929 62.2553 116.925 62.2453C116.92 62.2353 116.918 62.2245 116.918 62.2136C116.918 62.2027 116.92 62.1919 116.924 62.1818C116.928 62.1717 116.934 62.1625 116.942 62.1547C116.949 62.1469 116.958 62.1407 116.969 62.1365C116.979 62.1322 116.989 62.13 117 62.1299L120.571 62.0977C120.593 62.0977 120.614 62.1064 120.63 62.122C120.646 62.1375 120.654 62.1586 120.654 62.1807L120.656 62.1818Z" fill="#0C0C0C"/>
</g>
<path d="M125.82 66.1798L152.942 67.7427C153.898 67.8468 154.865 67.7278 155.768 67.3953C156.67 67.0627 157.483 66.5256 158.143 65.826C158.803 65.1264 159.292 64.2834 159.572 63.3631C159.851 62.4428 159.914 61.4703 159.754 60.5218L156.461 34.0278C156.326 33.2217 156.032 32.4501 155.599 31.7573C155.165 31.0644 154.599 30.4637 153.933 29.9896C153.267 29.5155 152.514 29.1772 151.717 28.994C150.921 28.8108 150.096 28.7863 149.29 28.922C148.484 29.0576 147.712 29.3507 147.019 29.7845C146.326 30.2183 145.726 30.7843 145.252 31.4503C144.777 32.1162 144.439 32.869 144.256 33.6657C144.073 34.4624 144.048 35.2873 144.184 36.0935L145.77 56.2182L125.939 55.5107L125.82 66.1798Z" fill="#367CFF"/>
<path d="M149.815 56.1339C149.836 56.1337 149.856 56.1258 149.872 56.1115C149.887 56.0973 149.896 56.0778 149.898 56.057C149.899 56.0362 149.893 56.0156 149.88 55.9993C149.867 55.9829 149.848 55.9721 149.828 55.9689L145.817 55.9425C145.806 55.9407 145.795 55.9411 145.785 55.9437C145.774 55.9463 145.764 55.9509 145.755 55.9574C145.746 55.9639 145.739 55.9721 145.733 55.9815C145.728 55.9909 145.724 56.0014 145.723 56.0122C145.719 56.034 145.725 56.0561 145.738 56.0738C145.751 56.0915 145.771 56.1032 145.792 56.1065L149.803 56.1329C149.807 56.1335 149.811 56.1339 149.815 56.1339Z" fill="#0C0C0C"/>
<path d="M152.079 67.8619C152.101 67.8633 152.123 67.8559 152.139 67.8413C152.156 67.8267 152.166 67.8062 152.167 67.7842C152.169 67.7622 152.161 67.7405 152.147 67.7239C152.132 67.7074 152.112 67.6973 152.09 67.6959L126.001 66.141L126.079 55.6333L145.79 56.1064C145.803 56.1081 145.816 56.1067 145.829 56.1024C145.841 56.0982 145.852 56.0911 145.861 56.0819C145.87 56.0725 145.877 56.0612 145.881 56.0488C145.885 56.0363 145.885 56.0232 145.883 56.0103L144.768 44.0137C144.767 44.0029 144.763 43.9925 144.757 43.9832C144.751 43.9739 144.744 43.9659 144.735 43.9595C144.726 43.9532 144.716 43.9487 144.705 43.9463C144.695 43.9439 144.684 43.9437 144.673 43.9456C144.662 43.9474 144.652 43.9513 144.642 43.9571C144.633 43.9629 144.625 43.9704 144.619 43.9793C144.613 43.9882 144.608 43.9982 144.606 44.0089C144.603 44.0195 144.603 44.0305 144.605 44.0413L145.701 55.9267L126.041 55.4503C126.031 55.4473 126.02 55.4465 126.009 55.4479C125.998 55.4494 125.987 55.453 125.977 55.4586C125.968 55.4642 125.96 55.4716 125.953 55.4805C125.946 55.4894 125.941 55.4994 125.939 55.5102L125.82 66.1793C125.815 66.2003 125.818 66.2224 125.829 66.241C125.84 66.2596 125.858 66.2732 125.879 66.2789L152.068 67.8602C152.071 67.861 152.075 67.8616 152.079 67.8619Z" fill="#0C0C0C"/>
<path d="M58.8945 61.9795H56.6901L55.4536 57.1831C55.4078 57.0125 55.3297 56.6597 55.2195 56.1247C55.1093 55.5898 55.0458 55.2307 55.0289 55.0474C55.004 55.2722 54.9416 55.6333 54.8415 56.1309C54.7415 56.6284 54.6645 56.9834 54.6106 57.1958L53.3803 61.9795H51.1821L48.8525 52.8496H50.7573L51.9251 57.8332C52.1292 58.7534 52.277 59.5506 52.3685 60.225C52.3934 59.9877 52.4507 59.6203 52.5403 59.1228C52.63 58.6254 52.7143 58.2392 52.7933 57.9643L54.1234 52.8496H55.9532L57.2834 57.9643C57.3416 58.1934 57.4144 58.5431 57.502 59.0134C57.5895 59.4837 57.6559 59.8877 57.7012 60.2252C57.7428 59.9005 57.8092 59.4956 57.9004 59.0104C57.9915 58.5253 58.0745 58.1329 58.1494 57.8333L59.3113 52.8498H61.2161L58.8945 61.9795Z" fill="#2C302F"/>
<path d="M67.6251 61.9795H62.3667V52.8496H67.6251V54.4359H64.3029V56.4405H67.3942V58.0261H64.3029V60.3806H67.6251V61.9795Z" fill="#2C302F"/>
<path d="M69.5298 61.9795V52.8496H71.4658V60.3812H75.169V61.98L69.5298 61.9795Z" fill="#2C302F"/>
<path d="M80.6339 54.3296C80.3056 54.3146 79.9788 54.3819 79.6831 54.5253C79.3874 54.6687 79.1322 54.8837 78.9407 55.1508C78.541 55.6984 78.3412 56.4613 78.3413 57.4397C78.3413 59.476 79.1052 60.4941 80.6331 60.4941C81.4308 60.4631 82.218 60.3005 82.9627 60.0127V61.6363C82.1653 61.9578 81.3118 62.117 80.4521 62.1047C79.1242 62.1047 78.1083 61.7019 77.4044 60.8963C76.7006 60.0906 76.3488 58.9342 76.349 57.4269C76.3301 56.5668 76.5074 55.7136 76.8674 54.9322C77.1868 54.2469 77.706 53.6743 78.3569 53.2896C79.05 52.8969 79.8367 52.6995 80.6331 52.7183C81.5611 52.7281 82.4748 52.9481 83.3056 53.3615L82.681 54.9353C82.3454 54.7754 82.0015 54.6336 81.6506 54.5105C81.3243 54.3934 80.9806 54.3322 80.6339 54.3296Z" fill="#2C302F"/>
<path d="M93.1921 57.402C93.1921 58.9132 92.8174 60.0748 92.068 60.8867C91.3186 61.6987 90.2444 62.1046 88.8455 62.1045C87.4467 62.1045 86.3726 61.6986 85.6231 60.8867C84.8737 60.0749 84.499 58.9092 84.499 57.3895C84.499 55.8698 84.8748 54.7092 85.6263 53.9079C86.3778 53.1066 87.455 52.7058 88.8579 52.7056C90.2609 52.7056 91.3341 53.1095 92.0774 53.9173C92.8208 54.7252 93.1923 55.8867 93.1921 57.402ZM86.5287 57.402C86.5287 58.422 86.7223 59.1901 87.1097 59.7063C87.497 60.2226 88.0756 60.4807 88.8457 60.4807C90.3904 60.4807 91.1627 59.4545 91.1626 57.402C91.1626 55.3453 90.3944 54.3169 88.8581 54.3169C88.088 54.3169 87.507 54.5761 87.1151 55.0944C86.7233 55.6128 86.5278 56.382 86.5287 57.402Z" fill="#2C302F"/>
<path d="M98.9507 61.9795L96.7526 54.8163H96.6963C96.7753 56.2736 96.8149 57.2457 96.815 57.7328V61.9795H95.085V52.8496H97.7205L99.8813 59.8316H99.9186L102.211 52.8496H104.846V61.9795H103.041V57.6577C103.041 57.4539 103.044 57.2187 103.05 56.9521C103.057 56.6855 103.085 55.9777 103.135 54.8288H103.079L100.724 61.9795H98.9507Z" fill="#2C302F"/>
<path d="M112.403 61.9795H107.144V52.8496H112.402V54.4359H109.08V56.4405H112.172V58.0261H109.08V60.3806H112.403V61.9795Z" fill="#2C302F"/>
</svg>
